# xmcd
#
# Track frame offsets: 
#        150
#        16098
#        33238
#        51338
#        72533
#        90803
#        109298
#        129340
#        146665
#        169310
#        184920
#        205093
#        226045
#        249558
#        266253
#        279103
#        301133
#        325555
#
# Disc length: 4509 seconds
#
# Revision: 0
# Processed by: cddbd v1.5.2PL0 Copyright (c) Steve Scherf et al.
# Submitted via: ExactAudioCopy v0.99pb5
#
DISCID=e9119b12
DTITLE=Va  - Hard and Heavy Time Life Box Set - Disc 6
DYEAR=1900
DGENRE=
TTITLE0=Beastie Boys - Fight For Your Right
TTITLE1=Poison - Talk Dirty To Me
TTITLE2=Scandal - The Warrior
TTITLE3=Robert Plant - Tall Cool One
TTITLE4=Winger - Headed For A Heartbreak
TTITLE5=White Lion - Wait
TTITLE6=Sammy Hagar - Give To Love
TTITLE7=Billy Squier - Everybody Wants You
TTITLE8=Night Ranger - Sister Christian
TTITLE9=Georgia Satellites - Keep Your Hands To Yourself
TTITLE10=Ratt - Round And Round
TTITLE11=Whitesnake - Here I Go Again
TTITLE12=Judus Priest - You've Got Another Thing Comin'
TTITLE13=Twisted Sister - We're Not Gonna Take It
TTITLE14=Motorhead - Ace Of Spades
TTITLE15=Golden Earring - Twilight Zone
TTITLE16=Great White - Once Bitten Twice Shy
TTITLE17=Firm, The - Radioactive
EXTD=
EXTT0=
EXTT1=
EXTT2=
EXTT3=
EXTT4=
EXTT5=
EXTT6=
EXTT7=
EXTT8=
EXTT9=
EXTT10=
EXTT11=
EXTT12=
EXTT13=
EXTT14=
EXTT15=
EXTT16=
EXTT17=
PLAYORDER=
